<svg width="36" height="36" viewBox="0 0 36 36" fill="none" xmlns="http://www.w3.org/2000/svg">
<path fill-rule="evenodd" clip-rule="evenodd" d="M10.5 4.875C11.1213 4.875 11.625 5.37868 11.625 6V8.50144C15.8666 8.1237 20.1334 8.12371 24.375 8.50145V6C24.375 5.37868 24.8787 4.875 25.5 4.875C26.1213 4.875 26.625 5.37868 26.625 6V8.72465C28.8646 9.04132 30.6339 10.8127 30.9334 13.0723L31.0632 14.0517C31.6092 18.1712 31.5621 22.3477 30.9231 26.4538C30.6066 28.4878 28.9541 30.0502 26.9055 30.2522L25.116 30.4287C20.3835 30.8954 15.6165 30.8954 10.8839 30.4287L9.09438 30.2522C7.04577 30.0502 5.39328 28.4879 5.07677 26.4538C4.43783 22.3477 4.39067 18.1712 4.93672 14.0517L5.06655 13.0723C5.36606 10.8127 7.13539 9.04127 9.375 8.72464V6C9.375 5.37868 9.87868 4.875 10.5 4.875ZM11.1677 10.8042C15.7115 10.3561 20.2884 10.3561 24.8322 10.8042L26.1903 10.9381C27.4905 11.0664 28.5312 12.0728 28.7029 13.3679L28.8327 14.3473C28.8781 14.6895 28.9191 15.0321 28.9558 15.375H7.04409C7.08082 15.0321 7.12186 14.6895 7.16721 14.3473L7.29704 13.3679C7.46871 12.0728 8.50945 11.0664 9.80957 10.9381L11.1677 10.8042ZM6.86525 17.625C6.71798 20.4571 6.86307 23.2998 7.30001 26.1078C7.45877 27.1281 8.28764 27.9117 9.3152 28.0131L11.1047 28.1895C15.6904 28.6418 20.3095 28.6418 24.8952 28.1895L26.6847 28.0131C27.7123 27.9117 28.5411 27.1281 28.6999 26.1078C29.1368 23.2998 29.2819 20.4571 29.1347 17.625H6.86525Z" fill="black"/>
</svg>
