<svg width="36" height="36" viewBox="0 0 36 36" fill="none" xmlns="http://www.w3.org/2000/svg">
<path fill-rule="evenodd" clip-rule="evenodd" d="M13.3938 6.70543C11.4869 6.49231 9.51307 6.49231 7.60624 6.70543C7.14291 6.75721 6.77751 7.1241 6.7254 7.56969C6.49769 9.5166 6.49769 11.4834 6.7254 13.4303C6.77751 13.8759 7.14291 14.2428 7.60624 14.2946C9.51307 14.5077 11.4869 14.5077 13.3938 14.2946C13.8571 14.2428 14.2225 13.8759 14.2746 13.4303C14.5023 11.4834 14.5023 9.5166 14.2746 7.56969C14.2225 7.1241 13.8571 6.75721 13.3938 6.70543ZM7.35633 4.46935C9.42925 4.23767 11.5708 4.23767 13.6437 4.46935C15.1299 4.63546 16.3336 5.80544 16.5094 7.30831C16.7574 9.42888 16.7574 11.5711 16.5094 13.6917C16.3336 15.1946 15.1299 16.3645 13.6437 16.5307C11.5708 16.7623 9.42925 16.7623 7.35633 16.5307C5.87007 16.3645 4.6664 15.1946 4.49063 13.6917C4.24261 11.5711 4.24261 9.42888 4.49063 7.30831C4.6664 5.80545 5.87007 4.63546 7.35633 4.46935Z" fill="black"/>
<path fill-rule="evenodd" clip-rule="evenodd" d="M13.3938 21.7054C11.4869 21.4923 9.51307 21.4923 7.60624 21.7054C7.14291 21.7572 6.77751 22.1241 6.7254 22.5697C6.49769 24.5166 6.49769 26.4834 6.7254 28.4303C6.77751 28.8759 7.14291 29.2428 7.60624 29.2946C9.51307 29.5077 11.4869 29.5077 13.3938 29.2946C13.8571 29.2428 14.2225 28.8759 14.2746 28.4303C14.5023 26.4834 14.5023 24.5166 14.2746 22.5697C14.2225 22.1241 13.8571 21.7572 13.3938 21.7054ZM7.35633 19.4694C9.42925 19.2377 11.5708 19.2377 13.6437 19.4694C15.1299 19.6355 16.3336 20.8054 16.5094 22.3083C16.7574 24.4289 16.7574 26.5711 16.5094 28.6917C16.3336 30.1946 15.1299 31.3645 13.6437 31.5307C11.5708 31.7623 9.42925 31.7623 7.35633 31.5307C5.87007 31.3645 4.6664 30.1946 4.49063 28.6917C4.24261 26.5711 4.24261 24.4289 4.49063 22.3083C4.6664 20.8054 5.87007 19.6355 7.35633 19.4694Z" fill="black"/>
<path fill-rule="evenodd" clip-rule="evenodd" d="M28.3938 6.70543C26.4869 6.49231 24.5131 6.49231 22.6062 6.70543C22.1429 6.75721 21.7775 7.1241 21.7254 7.56969C21.4977 9.5166 21.4977 11.4834 21.7254 13.4303C21.7775 13.8759 22.1429 14.2428 22.6062 14.2946C24.5131 14.5077 26.4869 14.5077 28.3938 14.2946C28.8571 14.2428 29.2225 13.8759 29.2746 13.4303C29.5023 11.4834 29.5023 9.5166 29.2746 7.56969C29.2225 7.1241 28.8571 6.75721 28.3938 6.70543ZM22.3563 4.46935C24.4292 4.23767 26.5708 4.23767 28.6437 4.46935C30.1299 4.63546 31.3336 5.80544 31.5094 7.30831C31.7574 9.42888 31.7574 11.5711 31.5094 13.6917C31.3336 15.1946 30.1299 16.3645 28.6437 16.5307C26.5708 16.7623 24.4292 16.7623 22.3563 16.5307C20.8701 16.3645 19.6664 15.1946 19.4906 13.6917C19.2426 11.5711 19.2426 9.42888 19.4906 7.30831C19.6664 5.80545 20.8701 4.63546 22.3563 4.46935Z" fill="black"/>
<path fill-rule="evenodd" clip-rule="evenodd" d="M28.3938 21.7054C26.4869 21.4923 24.5131 21.4923 22.6062 21.7054C22.1429 21.7572 21.7775 22.1241 21.7254 22.5697C21.4977 24.5166 21.4977 26.4834 21.7254 28.4303C21.7775 28.8759 22.1429 29.2428 22.6062 29.2946C24.5131 29.5077 26.4869 29.5077 28.3938 29.2946C28.8571 29.2428 29.2225 28.8759 29.2746 28.4303C29.5023 26.4834 29.5023 24.5166 29.2746 22.5697C29.2225 22.1241 28.8571 21.7572 28.3938 21.7054ZM22.3563 19.4694C24.4292 19.2377 26.5708 19.2377 28.6437 19.4694C30.1299 19.6355 31.3336 20.8054 31.5094 22.3083C31.7574 24.4289 31.7574 26.5711 31.5094 28.6917C31.3336 30.1946 30.1299 31.3645 28.6437 31.5307C26.5708 31.7623 24.4292 31.7623 22.3563 31.5307C20.8701 31.3645 19.6664 30.1946 19.4906 28.6917C19.2426 26.5711 19.2426 24.4289 19.4906 22.3083C19.6664 20.8054 20.8701 19.6355 22.3563 19.4694Z" fill="black"/>
</svg>
