<svg width="36" height="36" viewBox="0 0 36 36" fill="none" xmlns="http://www.w3.org/2000/svg">
<path d="M18 13.5C16.3431 13.5 15 14.8431 15 16.5C15 18.1569 16.3431 19.5 18 19.5C19.6569 19.5 21 18.1569 21 16.5C21 14.8431 19.6569 13.5 18 13.5Z" fill="black"/>
<path d="M12 26.25C12 23.7647 14.0147 21.75 16.5 21.75H19.5C21.9853 21.75 24 23.7647 24 26.25C24 27.0784 23.3284 27.75 22.5 27.75H13.5C12.6716 27.75 12 27.0784 12 26.25Z" fill="black"/>
<path fill-rule="evenodd" clip-rule="evenodd" d="M10.5 3.375C8.22182 3.375 6.375 5.22183 6.375 7.5V28.5C6.375 30.7782 8.22182 32.625 10.5 32.625H25.5C27.7782 32.625 29.625 30.7782 29.625 28.5V12.2968C29.625 11.7477 29.4528 11.2123 29.1325 10.7662L24.6128 4.46932C24.1197 3.78236 23.3259 3.375 22.4803 3.375H10.5ZM8.625 7.5C8.625 6.46447 9.46447 5.625 10.5 5.625H21.375V12.2206C21.375 12.8419 21.8787 13.3456 22.5 13.3456H27.375V28.5C27.375 29.5355 26.5355 30.375 25.5 30.375H10.5C9.46447 30.375 8.625 29.5355 8.625 28.5V7.5Z" fill="black"/>
</svg>
