<svg width="36" height="36" viewBox="0 0 36 36" fill="none" xmlns="http://www.w3.org/2000/svg">
<path fill-rule="evenodd" clip-rule="evenodd" d="M16.875 8.68249C11.3975 9.24544 7.125 13.8738 7.125 19.5C7.125 25.5061 11.9939 30.375 18 30.375C23.6262 30.375 28.2546 26.1025 28.8175 20.625H18C17.3787 20.625 16.875 20.1213 16.875 19.5V8.68249ZM4.875 19.5C4.875 12.2513 10.7513 6.37501 18 6.37501C18.6213 6.37501 19.125 6.87869 19.125 7.50001V18.375H30C30.6213 18.375 31.125 18.8787 31.125 19.5C31.125 26.7487 25.2487 32.625 18 32.625C10.7513 32.625 4.875 26.7487 4.875 19.5Z" fill="black"/>
<path fill-rule="evenodd" clip-rule="evenodd" d="M23.25 7.01047V14.25H30.4895C29.645 10.6734 26.8266 7.85501 23.25 7.01047ZM22.497 4.59248C27.9275 5.26827 32.2317 9.57251 32.9075 15.003C33.0098 15.8251 32.3284 16.5 31.5 16.5H21.75C21.3358 16.5 21 16.1642 21 15.75V6.00001C21 5.17158 21.6749 4.49017 22.497 4.59248Z" fill="black"/>
</svg>
