<svg width="36" height="36" viewBox="0 0 36 36" fill="none" xmlns="http://www.w3.org/2000/svg">
<path fill-rule="evenodd" clip-rule="evenodd" d="M18 4.61879L14.6808 8.05304C14.3275 8.41858 13.8409 8.62499 13.3326 8.62499H8.625V13.3326C8.625 13.8409 8.41858 14.3275 8.05305 14.6808L4.6188 18L8.05305 21.3192C8.41858 21.6725 8.625 22.1591 8.625 22.6674V27.375H13.3326C13.8409 27.375 14.3275 27.5814 14.6808 27.9469L18 31.3812L21.3192 27.9469C21.6725 27.5814 22.1591 27.375 22.6674 27.375H27.375V22.6674C27.375 22.159 27.5814 21.6725 27.947 21.3192L31.3812 18L27.947 14.6808C27.5814 14.3275 27.375 13.8409 27.375 13.3326V8.62499H22.6674C22.1591 8.62499 21.6725 8.41858 21.3192 8.05304L18 4.61879ZM16.6518 2.77614C17.3888 2.01354 18.6112 2.01354 19.3482 2.77614L22.8265 6.37499H27.75C28.7855 6.37499 29.625 7.21446 29.625 8.24999V13.1735L33.2239 16.6518C33.9865 17.3888 33.9865 18.6112 33.2239 19.3482L29.625 22.8265V27.75C29.625 28.7855 28.7855 29.625 27.75 29.625H22.8265L19.3482 33.2238C18.6112 33.9864 17.3888 33.9864 16.6518 33.2238L13.1735 29.625H8.25C7.21447 29.625 6.375 28.7855 6.375 27.75V22.8265L2.77615 19.3482C2.01355 18.6112 2.01355 17.3888 2.77615 16.6518L6.375 13.1735V8.24999C6.375 7.21446 7.21447 6.37499 8.25 6.37499H13.1735L16.6518 2.77614Z" fill="black"/>
<path fill-rule="evenodd" clip-rule="evenodd" d="M10.875 18C10.875 14.065 14.065 10.875 18 10.875C21.935 10.875 25.125 14.065 25.125 18C25.125 21.935 21.935 25.125 18 25.125C14.065 25.125 10.875 21.935 10.875 18ZM18 13.125C15.3076 13.125 13.125 15.3076 13.125 18C13.125 20.6924 15.3076 22.875 18 22.875C20.6924 22.875 22.875 20.6924 22.875 18C22.875 15.3076 20.6924 13.125 18 13.125Z" fill="black"/>
</svg>
